<svg xmlns="http://www.w3.org/2000/svg" width="200" height="20" viewBox="0 0 2000 200">
  <defs>
    <style>
      .cls-1 {
        fill: #fff;
        fill-rule: evenodd;
      }
    </style>
  </defs>
  <path id="ASH_GRAPHICS" data-name="ASH GRAPHICS" class="cls-1" d="M164.69,184.944h41.771l-76.907-172H90.24l-76.662,172H54.366L69.6,148.088h79.856ZM82.377,117.865l27.274-65.85,27.274,65.85H82.377Zm198.529,70.028c49.142,0,72.976-24.571,72.976-53.319,0-63.148-100-41.28-100-72.976,0-10.811,9.091-19.657,32.679-19.657,15.234,0,31.7,4.423,47.668,13.514l12.286-30.222C330.54,15.158,308.426,10,286.8,10c-48.9,0-72.485,24.325-72.485,53.565,0,63.885,100,41.771,100,73.959,0,10.566-9.583,18.429-33.171,18.429-20.64,0-42.263-7.372-56.759-17.937L210.878,167.99C226.113,179.784,253.632,187.893,280.906,187.893ZM499.091,12.947V80.763H420.955V12.947H381.15v172h39.805V114.425h78.136v70.519h39.8v-172h-39.8ZM765.434,146.613c-10.075,5.406-20.149,7.372-30.96,7.372-32.925,0-55.776-22.851-55.776-55.039,0-32.68,22.851-55.039,56.267-55.039,17.446,0,31.943,6.143,44.474,19.411l25.554-23.588C788.285,20.318,763.222,10,733,10c-54.794,0-94.6,37.1-94.6,88.947s39.805,88.947,93.862,88.947c24.571,0,50.616-7.617,69.536-21.868V96.243H765.434v50.37Zm225.558,38.331-38.577-55.285c22.36-9.582,35.383-28.5,35.383-54.3,0-38.577-28.749-62.411-74.7-62.411h-74.45v172h39.805V137.031h36.611l33.171,47.913h42.754ZM947.5,75.357c0,18.674-12.286,29.977-36.611,29.977H878.456V45.381H910.89C935.215,45.381,947.5,56.438,947.5,75.357ZM1147.75,184.944h41.77l-76.91-172H1073.3l-76.664,172h40.784l15.24-36.856h79.85Zm-82.31-67.079,27.27-65.85,27.27,65.85h-54.54ZM1281.9,12.947h-74.45v172h39.81V137.522h34.64c45.95,0,74.7-23.834,74.7-62.165C1356.6,36.781,1327.85,12.947,1281.9,12.947Zm-2.21,92.141h-32.43V45.381h32.43c24.33,0,36.61,11.057,36.61,29.977C1316.3,94.031,1304.02,105.088,1279.69,105.088Zm223.1-92.141V80.763h-78.13V12.947h-39.81v172h39.81V114.425h78.13v70.519h39.81v-172h-39.81Zm80.59,172h39.81v-172h-39.81v172Zm162.9,2.949c29.98,0,54.8-10.811,71.01-30.714l-25.55-23.588c-11.55,13.514-26.05,20.394-43.25,20.394-32.18,0-55.03-22.606-55.03-55.039s22.85-55.039,55.03-55.039c17.2,0,31.7,6.88,43.25,20.148l25.55-23.588C1801.08,20.81,1776.26,10,1746.53,10c-53.57,0-93.37,37.1-93.37,88.947S1692.96,187.893,1746.28,187.893Zm152.83,0c49.14,0,72.98-24.571,72.98-53.319,0-63.148-100.01-41.28-100.01-72.976,0-10.811,9.09-19.657,32.68-19.657,15.24,0,31.7,4.423,47.67,13.514l12.28-30.222C1948.74,15.158,1926.63,10,1905.01,10c-48.9,0-72.49,24.325-72.49,53.565,0,63.885,100.01,41.771,100.01,73.959,0,10.566-9.59,18.429-33.17,18.429-20.64,0-42.27-7.372-56.76-17.937l-13.52,29.976C1844.32,179.784,1871.84,187.893,1899.11,187.893Z"/>
</svg>
