<svg id="Layer_1" data-name="Layer 1" xmlns="http://www.w3.org/2000/svg" viewBox="0 0 80 80"><defs><style>.cls-1{fill:none;}.cls-2{fill:#fff;}</style></defs><title>media-icon-dribble</title><path class="cls-1" d="M45.59,53.32A56.83,56.83,0,0,0,42.54,33a55.11,55.11,0,0,1-12.15,1.31,80.12,80.12,0,0,1-23-3.73,33.91,33.91,0,0,0,8.38,33.2,55.64,55.64,0,0,1,25-10.1A47.32,47.32,0,0,1,45.59,53.32Z"/><path class="cls-1" d="M41.3,58.62a50,50,0,0,0-21.76,8.52A33.88,33.88,0,0,0,40,74c.77,0,1.53,0,2.29-.09a87.47,87.47,0,0,0,3-15.6C44,58.35,42.64,58.45,41.3,58.62Z"/><path class="cls-1" d="M66.73,19A48,48,0,0,1,53.47,29a46.05,46.05,0,0,1-6.11,2.55A61.77,61.77,0,0,1,50.59,53.5,50.7,50.7,0,0,1,68.4,58.67,33.9,33.9,0,0,0,66.73,19Z"/><path class="cls-1" d="M47.7,73.11a34,34,0,0,0,17.66-10.5,44.65,44.65,0,0,0-15-4.15A91.2,91.2,0,0,1,47.7,73.11Z"/><path class="cls-1" d="M44.88,25.58c.22.45.41.92.62,1.37a42,42,0,0,0,5.67-2.35,42.55,42.55,0,0,0,12.15-9.31A33.88,33.88,0,0,0,40,6a34.28,34.28,0,0,0-9.06,1.23A58.86,58.86,0,0,1,44.88,25.58Z"/><path class="cls-1" d="M40.61,28.27c-.07-.16-.13-.31-.2-.46A54.51,54.51,0,0,0,25.52,9.25,34.12,34.12,0,0,0,9.09,25.87C20.86,29.38,31.39,30.19,40.61,28.27Z"/><path class="cls-1" d="M47.36,31.59A46.05,46.05,0,0,0,53.47,29,48,48,0,0,0,66.73,19a33.54,33.54,0,0,0-3.41-3.74A42.55,42.55,0,0,1,51.17,24.6,42,42,0,0,1,45.5,27c-.21-.45-.4-.92-.62-1.37A58.86,58.86,0,0,0,30.94,7.23a33.86,33.86,0,0,0-5.42,2A54.51,54.51,0,0,1,40.41,27.81c.07.15.13.3.2.46-9.22,1.92-19.75,1.11-31.52-2.4a33.4,33.4,0,0,0-1.75,4.69,80.12,80.12,0,0,0,23.05,3.73A55.11,55.11,0,0,0,42.54,33a56.83,56.83,0,0,1,3.05,20.34,47.32,47.32,0,0,0-4.91.34,55.64,55.64,0,0,0-25,10.1,34.06,34.06,0,0,0,3.82,3.38A50,50,0,0,1,41.3,58.62c1.34-.17,2.67-.27,4-.31a87.47,87.47,0,0,1-3,15.6,33.28,33.28,0,0,0,5.41-.8,91.2,91.2,0,0,0,2.61-14.65,44.65,44.65,0,0,1,15,4.15,33.31,33.31,0,0,0,3-3.94A50.7,50.7,0,0,0,50.59,53.5,61.77,61.77,0,0,0,47.36,31.59Z"/><path class="cls-2" d="M70.05,15.14a37.6,37.6,0,0,0-3.53-3.72,39,39,0,0,0-40.2-7.95A39.58,39.58,0,0,0,21,5.92,39.1,39.1,0,0,0,4.3,24.31,38.21,38.21,0,0,0,2.58,29a39,39,0,0,0,9.13,37.82,39.5,39.5,0,0,0,3.67,3.41A38.84,38.84,0,0,0,40,79l.71,0a38.68,38.68,0,0,0,29.2-14,39.93,39.93,0,0,0,2.9-3.94,39,39,0,0,0-2.76-45.94ZM65.36,62.61a44.65,44.65,0,0,0-15-4.15A91.2,91.2,0,0,1,47.7,73.11a33.28,33.28,0,0,1-5.41.8,87.47,87.47,0,0,0,3-15.6c-1.33,0-2.66.14-4,.31a50,50,0,0,0-21.76,8.52,34.06,34.06,0,0,1-3.82-3.38,55.64,55.64,0,0,1,25-10.1,47.32,47.32,0,0,1,4.91-.34A56.83,56.83,0,0,0,42.54,33a55.11,55.11,0,0,1-12.15,1.31,80.12,80.12,0,0,1-23-3.73,33.4,33.4,0,0,1,1.75-4.69c11.77,3.51,22.3,4.32,31.52,2.4-.07-.16-.13-.31-.2-.46A54.51,54.51,0,0,0,25.52,9.25a33.86,33.86,0,0,1,5.42-2A58.86,58.86,0,0,1,44.88,25.58c.22.45.41.92.62,1.37a42,42,0,0,0,5.67-2.35,42.55,42.55,0,0,0,12.15-9.31A33.54,33.54,0,0,1,66.73,19,48,48,0,0,1,53.47,29a46.05,46.05,0,0,1-6.11,2.55A61.77,61.77,0,0,1,50.59,53.5,50.7,50.7,0,0,1,68.4,58.67,33.31,33.31,0,0,1,65.36,62.61Z"/></svg>