<svg id="Layer_1" data-name="Layer 1" xmlns="http://www.w3.org/2000/svg" xmlns:xlink="http://www.w3.org/1999/xlink" viewBox="0 0 80 80"><defs><style>.cls-1{fill:url(#linear-gradient);}.cls-2{fill:#bcbcbc;}.cls-3{fill:#f7f7f7;}</style><linearGradient id="linear-gradient" x1="62.95" y1="72.77" x2="17.05" y2="7.23" gradientUnits="userSpaceOnUse"><stop offset="0" stop-color="#d2e3f4"/><stop offset="0.26" stop-color="#c9daec"/><stop offset="0.67" stop-color="#b1c2d6"/><stop offset="1" stop-color="#9aaac0"/></linearGradient></defs><title>Artboard 5</title><circle class="cls-1" cx="40" cy="40" r="40"/><path class="cls-2" d="M40,45.11V12L28.05,41.14s10.54-2.75,10.31,4Z"/><path class="cls-3" d="M40,45.11V12L52,41.14s-10.54-2.75-10.31,4Z"/><polygon class="cls-3" points="41.64 52.78 41.64 46.56 40 46.56 38.36 46.56 38.36 52.78 32.14 52.78 32.14 54.42 32.14 56.06 38.36 56.06 38.36 67.99 40 67.99 41.64 67.99 41.64 56.06 47.86 56.06 47.86 54.42 47.86 52.78 41.64 52.78"/><path class="cls-3" d="M19.19,40.74A20.79,20.79,0,0,1,33.33,21l.89-2.18A22.64,22.64,0,0,0,35.61,63V61.08A20.84,20.84,0,0,1,19.19,40.74Z"/><path class="cls-3" d="M62.65,40.74a22.59,22.59,0,0,0-16.87-21.9L46.67,21a20.81,20.81,0,0,1-2.28,40.06V63A22.68,22.68,0,0,0,62.65,40.74Z"/></svg>