<svg id="Layer_1" data-name="Layer 1" xmlns="http://www.w3.org/2000/svg" xmlns:xlink="http://www.w3.org/1999/xlink" viewBox="0 0 80 80"><defs><style>.cls-1{fill:url(#linear-gradient);}.cls-2{fill:#fff;}.cls-3{fill:none;}</style><linearGradient id="linear-gradient" x1="58.02" y1="65.74" x2="18.68" y2="9.56" gradientUnits="userSpaceOnUse"><stop offset="0" stop-color="#d4c0dd"/><stop offset="0.22" stop-color="#ccb7d8"/><stop offset="0.58" stop-color="#b69fcb"/><stop offset="1" stop-color="#967bb7"/></linearGradient></defs><title>Artboard 1</title><circle class="cls-1" cx="40" cy="40" r="40"/><path class="cls-2" d="M58.82,47.63a.89.89,0,0,0-1.26,0l-1.75,1.75-1.75-1.75a.88.88,0,0,0-1.25,0h0a.89.89,0,0,0,0,1.26l1.74,1.75-1.74,1.74a.89.89,0,0,0,0,1.26h0a.88.88,0,0,0,1.25,0l1.75-1.75,1.75,1.75a.89.89,0,0,0,1.26-1.26l-1.75-1.74,1.75-1.75A.89.89,0,0,0,58.82,47.63Z"/><path class="cls-2" d="M42.82,47.63a.89.89,0,0,0-1.26,0l-1.75,1.75-1.75-1.75a.88.88,0,0,0-1.25,0h0a.89.89,0,0,0,0,1.26l1.74,1.75-1.74,1.74a.89.89,0,0,0,0,1.26h0a.88.88,0,0,0,1.25,0l1.75-1.75,1.75,1.75a.89.89,0,0,0,1.26-1.26l-1.75-1.74,1.75-1.75A.89.89,0,0,0,42.82,47.63Z"/><path class="cls-2" d="M26.82,47.63a.89.89,0,0,0-1.26,0l-1.75,1.75-1.75-1.75a.88.88,0,0,0-1.25,0h0a.89.89,0,0,0,0,1.26l1.74,1.75-1.74,1.74a.89.89,0,0,0,0,1.26h0a.88.88,0,0,0,1.25,0l1.75-1.75,1.75,1.75a.89.89,0,1,0,1.26-1.26l-1.75-1.74,1.75-1.75A.89.89,0,0,0,26.82,47.63Z"/><circle class="cls-3" cx="39.99" cy="35.63" r="5.2"/><rect class="cls-3" x="34.79" y="45.61" width="10.05" height="10.05" rx="1.15"/><rect class="cls-3" x="18.97" y="35.68" width="7.58" height="1.52" rx="0.49"/><rect class="cls-3" x="18.97" y="31.68" width="13.85" height="1.52" rx="0.49"/><rect class="cls-3" x="49.99" y="34.85" width="10.82" height="1.52" rx="0.49"/><rect class="cls-3" x="50.79" y="45.61" width="10.05" height="10.05" rx="1.15"/><rect class="cls-3" x="18.79" y="45.61" width="10.05" height="10.05" rx="1.15"/><circle class="cls-3" cx="19.23" cy="24.88" r="0.97"/><circle class="cls-3" cx="24.23" cy="24.88" r="0.97"/><circle class="cls-3" cx="29.23" cy="24.88" r="0.97"/><path class="cls-2" d="M62,22.26H18a2.05,2.05,0,0,0-2.05,2v3.12H64.07V24.31A2.05,2.05,0,0,0,62,22.26Zm-42.79,3.6a1,1,0,1,1,1-1A1,1,0,0,1,19.23,25.86Zm5,0a1,1,0,1,1,1-1A1,1,0,0,1,24.23,25.86Zm5,0a1,1,0,1,1,1-1A1,1,0,0,1,29.23,25.86Z"/><path class="cls-2" d="M15.93,55.69A2.05,2.05,0,0,0,18,57.74H62a2.05,2.05,0,0,0,2-2.05V28.35H15.93Zm44.91-1.18a1.16,1.16,0,0,1-1.16,1.15H51.94a1.16,1.16,0,0,1-1.15-1.15V46.77a1.16,1.16,0,0,1,1.15-1.16h7.74a1.16,1.16,0,0,1,1.16,1.16ZM50,35.35a.49.49,0,0,1,.49-.5h9.84a.49.49,0,0,1,.49.5v.52a.49.49,0,0,1-.49.5H50.48a.49.49,0,0,1-.49-.5ZM40,30.42a5.21,5.21,0,1,1-5.2,5.21A5.21,5.21,0,0,1,40,30.42Zm-5.2,16.35a1.16,1.16,0,0,1,1.15-1.16h7.74a1.16,1.16,0,0,1,1.16,1.16v7.74a1.16,1.16,0,0,1-1.16,1.15H35.94a1.16,1.16,0,0,1-1.15-1.15ZM19,32.18a.49.49,0,0,1,.49-.5H32.32a.49.49,0,0,1,.49.5v.52a.49.49,0,0,1-.49.5H19.46a.49.49,0,0,1-.49-.5Zm0,4a.49.49,0,0,1,.49-.5h6.59a.5.5,0,0,1,.5.5v.52a.5.5,0,0,1-.5.5H19.46a.49.49,0,0,1-.49-.5Zm-.18,10.59a1.16,1.16,0,0,1,1.15-1.16h7.74a1.16,1.16,0,0,1,1.16,1.16v7.74a1.16,1.16,0,0,1-1.16,1.15H19.94a1.16,1.16,0,0,1-1.15-1.15Z"/><path class="cls-2" d="M40.77,35a1.6,1.6,0,1,0-1.51,0,3.75,3.75,0,0,0-2.06,3.61v0a5.28,5.28,0,0,0,2.83.84,5.17,5.17,0,0,0,2.75-.8s0-.06,0-.08A3.75,3.75,0,0,0,40.77,35Z"/></svg>