<svg id="Layer_1" data-name="Layer 1" xmlns="http://www.w3.org/2000/svg" xmlns:xlink="http://www.w3.org/1999/xlink" viewBox="0 0 80 80"><defs><style>.cls-1{fill:url(#linear-gradient);}.cls-2{fill:#fff;}</style><linearGradient id="linear-gradient" x1="58.02" y1="65.74" x2="12.13" y2="0.2" gradientUnits="userSpaceOnUse"><stop offset="0" stop-color="#bcdfbb"/><stop offset="0.19" stop-color="#b3d8b4"/><stop offset="0.51" stop-color="#9bc79f"/><stop offset="0.91" stop-color="#73aa7f"/><stop offset="1" stop-color="#69a276"/></linearGradient></defs><title>Artboard 4</title><circle class="cls-1" cx="40" cy="40" r="40"/><path class="cls-2" d="M62.69,46.84,58.8,32.46c-1.51-5.69-5.39-5.41-5.39-5.41H48.49c-1.44,0-2.15,1.38-2.42,2.07a.61.61,0,0,1-.57.38h-11a.61.61,0,0,1-.57-.38c-.27-.69-1-2.08-2.42-2.07H26.59s-3.88-.28-5.39,5.41L17.31,46.84s-1.79,5.71,3.76,6.07c1.49,0,2.25.56,5.16-2.94s3.18-4.22,7.82-2.76a23.9,23.9,0,0,0,6,.49,23.9,23.9,0,0,0,6-.49c4.64-1.46,4.92-.73,7.82,2.76s3.67,3,5.16,2.94C64.48,52.55,62.69,46.84,62.69,46.84ZM35.62,38.23a1.12,1.12,0,0,1-1.12,1.11H32.31v2.2a1.12,1.12,0,0,1-1.12,1.12h-.93a1.12,1.12,0,0,1-1.12-1.12v-2.2H27a1.12,1.12,0,0,1-1.12-1.11v-.94A1.12,1.12,0,0,1,27,36.18h2.19V34a1.12,1.12,0,0,1,1.12-1.12h.93A1.12,1.12,0,0,1,32.31,34v2.2H34.5a1.12,1.12,0,0,1,1.12,1.11ZM44.75,43a1.92,1.92,0,1,1,1.92-1.92A1.92,1.92,0,0,1,44.75,43Zm3.65-5.81a1.92,1.92,0,1,1,1.92-1.92A1.93,1.93,0,0,1,48.4,37.18ZM52.09,43A1.92,1.92,0,1,1,54,41.07,1.93,1.93,0,0,1,52.09,43Z"/></svg>