<svg id="Layer_1" data-name="Layer 1" xmlns="http://www.w3.org/2000/svg" xmlns:xlink="http://www.w3.org/1999/xlink" viewBox="0 0 80 80"><defs><style>.cls-1{fill:url(#linear-gradient);}.cls-2{fill:#fff;}</style><linearGradient id="linear-gradient" x1="58.02" y1="65.74" x2="12.13" y2="0.2" gradientUnits="userSpaceOnUse"><stop offset="0" stop-color="#eebcc0"/><stop offset="0.14" stop-color="#edb3b7"/><stop offset="0.37" stop-color="#e99b9f"/><stop offset="0.65" stop-color="#e37577"/><stop offset="0.99" stop-color="#db3f40"/><stop offset="1" stop-color="#db3d3e"/></linearGradient></defs><title>Artboard 2</title><circle class="cls-1" cx="40" cy="40" r="40"/><path class="cls-2" d="M35.56,36.43h0a.55.55,0,0,0-.77,0L32,39.23l-.69.7a.1.1,0,0,0,0,.14l.69.7,2.8,2.8a.55.55,0,0,0,.77,0h0a.55.55,0,0,0,0-.77l-2.75-2.75a.07.07,0,0,1,0-.1l2.75-2.75A.55.55,0,0,0,35.56,36.43Z"/><path class="cls-2" d="M44.44,36.43h0a.55.55,0,0,1,.77,0l2.8,2.8.69.7a.1.1,0,0,1,0,.14l-.69.7-2.8,2.8a.55.55,0,0,1-.77,0h0a.55.55,0,0,1,0-.77l2.75-2.75a.07.07,0,0,0,0-.1L44.44,37.2A.55.55,0,0,1,44.44,36.43Z"/><rect class="cls-2" x="39.24" y="34.2" width="1.51" height="11.6" rx="0.71" transform="translate(21.22 -13.36) rotate(25.61)"/><path class="cls-2" d="M60.38,45.83l-2.7-1.56a5.11,5.11,0,0,1,0-8.85l2.7-1.57a.76.76,0,0,0,.28-1l-4.24-7.35a.77.77,0,0,0-1-.28l-2.66,1.53a5.11,5.11,0,0,1-7.66-4.42V19.13a.76.76,0,0,0-.76-.77H35.7a.76.76,0,0,0-.76.77v3.16a5.11,5.11,0,0,1-7.66,4.42l-2.66-1.53a.77.77,0,0,0-1,.28l-4.24,7.35a.76.76,0,0,0,.28,1l2.7,1.57a5.11,5.11,0,0,1,0,8.85l-2.7,1.56a.76.76,0,0,0-.28,1l4.24,7.35a.76.76,0,0,0,1,.28L27.28,53a5.11,5.11,0,0,1,7.66,4.42v3.48a.76.76,0,0,0,.76.77h8.6a.76.76,0,0,0,.76-.77V57.39A5.11,5.11,0,0,1,52.72,53l2.66,1.53a.76.76,0,0,0,1-.28l4.24-7.35A.76.76,0,0,0,60.38,45.83ZM40,52.18A12.18,12.18,0,1,1,52.18,40,12.18,12.18,0,0,1,40,52.18Z"/></svg>