<svg id="Layer_1" data-name="Layer 1" xmlns="http://www.w3.org/2000/svg" xmlns:xlink="http://www.w3.org/1999/xlink" viewBox="0 0 80 80"><defs><style>.cls-1{fill:url(#linear-gradient);}.cls-2{fill:#fff;}</style><linearGradient id="linear-gradient" x1="62.95" y1="72.77" x2="17.05" y2="7.23" gradientUnits="userSpaceOnUse"><stop offset="0" stop-color="#f1dbb7"/><stop offset="0.18" stop-color="#eed9ae"/><stop offset="0.47" stop-color="#e7d596"/><stop offset="0.83" stop-color="#dcce6e"/><stop offset="1" stop-color="#d6ca5a"/></linearGradient></defs><title>Artboard 3</title><circle class="cls-1" cx="40" cy="40" r="40"/><circle class="cls-2" cx="39.96" cy="41.96" r="6.78"/><path class="cls-2" d="M57.75,29.86H52.52a3.15,3.15,0,0,1-3.16-3.16,3.17,3.17,0,0,0-3.17-3.17H33.73a3.16,3.16,0,0,0-3.16,3.17,3.16,3.16,0,0,1-3.17,3.16H22.25A3.17,3.17,0,0,0,19.08,33V53.3a3.17,3.17,0,0,0,3.17,3.17h35.5a3.17,3.17,0,0,0,3.17-3.17V33A3.17,3.17,0,0,0,57.75,29.86ZM40,52.74A10.78,10.78,0,1,1,50.74,42,10.78,10.78,0,0,1,40,52.74ZM55.31,37.38a1.78,1.78,0,1,1,1.78-1.78A1.78,1.78,0,0,1,55.31,37.38Z"/></svg>